<svg fill="none" height="40" viewBox="0 0 102 40" width="102" xmlns="http://www.w3.org/2000/svg" xmlns:xlink="http://www.w3.org/1999/xlink"><clipPath id="a"><path d="m0 0h102v40h-102z"/></clipPath><g clip-path="url(#a)" fill="#474f5d"><path d="m19.278 30.4082c-.714.8163-1.734 2.0408-1.53 2.9591.204.7143 1.224 1.2245 1.224 1.2245l2.244 1.2245-1.428 1.2245 1.734.5102s-1.632 1.6327-1.734 1.8368c-.408.102-.918.102-1.428.102-3.672 0-8.772-2.1429-9.996-2.1429-1.53 0-3.468.8164-3.468.8164l1.02-1.1225s-1.326.3061-2.55.2041l1.734-1.2245c-1.53 0-2.958-.5102-3.57-1.0204 0 0 2.856-.2041 6.834-.2041 1.632 0 4.284.2041 4.284.2041-1.326-.6122-2.55-1.3265-3.06-2.6531l2.55.4082c-1.02-.6122-2.652-2.2449-2.856-3.5714l2.856 1.0204c-.51-.5102-2.244-2.1429-2.55-4.0817l2.244 1.4286c-.612-.6122-2.142-3.6734-1.938-4.5918l2.04 1.4286c-1.02-1.2245-2.142-4.4898-1.326-5.8164.612 2.449 2.04 3.3674 2.04 3.3674-.918-1.3266-2.958-6.1225-1.02-8.1633.51 4.6939 2.55 6.3265 2.55 6.3265-1.632-2.653-3.57-10.81629 0-12.44894-.714 5.20404 1.02 8.06124 1.02 8.06124-1.02-4.7959-1.02-11.63267 2.55-12.24491-1.734 5.10204-.51 9.08161-.51 9.08161-.612-12.040796 3.264-11.836714 3.264-11.836714s-.612 3.367344-.612 9.489814v17.551c0 1.3265-.102 2.0408-.612 2.6531zm2.346 4.2857c1.53.102 2.652.2041 3.774.4081.408.1021.612.5102.612.8164-.51-.1021-1.326-.2041-1.326-.2041v.5102s.714-.2041 1.53-.2041c0 0 1.632 0 1.53 1.1225-.408-.3062-1.326-.2041-1.632-.1021-.816.1021-1.632.5102-2.448 1.0204-.816.4082-1.734.9184-2.754 1.2245.408-.4081 1.632-1.7347 1.632-1.7347l-1.632-.8163 1.326-1.1225-2.04-1.1224c.51.102.918.102 1.428.2041zm.102-1.8368h7.242v-23.77547h-6.63v14.79597l-1.938-1.8368v-11.8367c0-6.93879.816-10.2041.816-10.2041-2.244 0-3.366 2.14286-3.672 2.7551-1.224.10204-2.244.81633-2.856 2.2449-.408.81633-.612 1.53061-.612 1.93878-2.652.61224-2.856 5.30612-2.652 6.12242l-4.08-3.97957h-7.344v23.77547h6.63v-14.3877l3.162 3.0612c.306.8163.612 1.2245.612 1.2245l-1.224-1.1224c-.204 2.3469.408 3.5714 1.02 4.3877l-1.53-1.3265c-.102 2.3469 1.02 3.7755 1.734 4.3877l-2.04-1.0204c-.102 1.4286 1.224 3.3674 2.04 3.7755l-1.734-.204c.408 1.9387 1.734 2.551 1.734 2.551s-2.958.102-4.284.102c-3.672 0-6.12.3061-6.12.3061s1.632 1.6327 3.774 1.7347l-1.836 1.1225c1.326.5102 2.55.3061 2.55.3061l-1.122 1.3265s3.366-1.3265 4.794-1.2245c1.122.1021 6.426 2.1429 9.996 2.1429 2.448 0 4.182-.9184 5.508-1.6327.816-.4081 1.632-.8163 2.346-.9183 1.326-.2041 1.836.3061 1.836.3061.102-.5102.51-1.9388-1.53-2.2449-.102-.4082-.408-.8163-1.02-.9184-1.122-.204-5.916-.5102-6.018-.5102-.408 0-1.734-.3061-.51-2.1428.102-.1021.714-.9184.714-.9184z"/><path d="m58.1397 17.3469c.5099 0 1.0198.4082 1.0198.9184s-.5099.9184-1.0198.9184c-.5098 0-1.0197-.4082-1.0197-.9184s.4079-.9184 1.0197-.9184z"/><path d="m84.0477 17.3469c.5099 0 1.0198.4082 1.0198.9184s-.5099.9184-1.0198.9184c-.5098 0-1.0197-.4082-1.0197-.9184s.4079-.9184 1.0197-.9184z"/><path d="m51.102 22.3469v3.5714h-1.53v-.6122c-.408.4082-.918.7143-1.734.7143-1.224 0-2.244-.7143-2.244-1.8367 0-1.7347 1.836-2.1429 3.672-2.1429h.204c0-.5102-.204-.9184-1.122-.9184-.612 0-1.224.2041-1.632.6123l-.918-.9184c.612-.6122 1.53-1.0204 2.55-1.0204s1.53.102 2.142.6122c.51.6123.612 1.4286.612 1.9388zm-1.632 1.0204h-.102c-.306 0-.918 0-1.428.2041-.306.1021-.612.3061-.612.6123 0 .4081.408.6122.816.6122.816 0 1.326-.5102 1.326-1.2245z"/><path d="m54.57 20v-1.8367h-1.734v1.8367h-1.122v1.4286h1.122v2.551c0 .8163.102 1.3265.51 1.7347.306.3061.816.5102 1.53.5102.408 0 .918-.102 1.224-.2041v-1.5306c-.204.102-.51.102-.918.102-.51 0-.612-.3061-.612-.8163v-2.3469h1.53v-1.4286z"/><path d="m99.348 23.0612v.4082h-4.386c0 .6122.714 1.1224 1.53 1.1224.714 0 1.122-.3061 1.53-.7143l1.122.8163c-.612.8164-1.428 1.3266-2.652 1.3266-1.836 0-3.264-1.1225-3.264-3.1633 0-1.6326 1.02-3.1633 3.06-3.1633 2.244.2041 3.06 1.8368 3.06 3.3674zm-1.836-.7143c-.102-.6122-.408-1.1224-1.326-1.1224-.714 0-1.224.5102-1.326 1.1224z"/><path d="m42.738 17.3469v5.8164l-3.672-5.8164h-2.244v8.5715h1.836v-6.0205l3.774 6.0205h2.142v-8.5715z"/><path d="m80.784 20-1.02 3.6735-.918-3.6735h-1.734l-.918 3.6735-1.02-3.6735h-1.836l1.836 5.9184h1.734l1.02-3.6735 1.122 3.6735h1.632l1.938-5.9184z"/><path d="m57.222 20h1.7336v5.9184h-1.7336z"/><path d="m83.13 20h1.7336v5.9184h-1.7336z"/><path d="m72.216 20.4082c-.408-.4082-.816-.5103-1.428-.5103s-1.428.3062-1.734.8164v-.6123h-1.632v5.9184h1.734v-3.2653c0-.4082.102-.7143.306-.9184s.408-.3061.714-.3061c.408 0 .612.102.714.3061.204.2041.204.6123.204 1.2245v3.0612h1.734v-3.6734c0-.9184-.102-1.5306-.612-2.0408"/><path d="m92.31 17.3469v8.6735h-1.632v-.6123c-.408.4082-1.02.8164-1.836.8164s-1.53-.3061-2.04-.8164c-.612-.6122-.918-1.4285-.918-2.3469 0-1.8367 1.224-3.1633 2.856-3.1633.714 0 1.326.2041 1.836.7143v-3.2653zm-1.734 5.6123c0-.8164-.51-1.6327-1.53-1.6327s-1.53.8163-1.53 1.6327c0 .8163.51 1.6326 1.53 1.6326s1.53-.8163 1.53-1.6326z"/><path d="m66.402 22.9592c0 1.8367-1.326 3.1632-3.264 3.1632-1.836 0-3.264-1.3265-3.264-3.1632 0-1.8368 1.326-3.1633 3.264-3.1633 1.938.102 3.264 1.3265 3.264 3.1633zm-3.264-1.6327c-1.02 0-1.53.8163-1.53 1.6327 0 .8163.51 1.6326 1.53 1.6326s1.53-.8163 1.53-1.6326c0-.8164-.51-1.6327-1.53-1.6327z"/><path d="m100.164 19.3877h.306v-.6122h.204l.306.6122h.305l-.407-.6122c.204 0 .407-.2041.407-.4082 0-.3061-.203-.5102-.509-.5102h-.612zm.204-1.2245h.204c.204 0 .408.0001.408.2041 0 .2041-.204.2041-.408.2041h-.204zm-1.122.5103c0 .7142.6118 1.3265 1.326 1.3265.713 0 1.325-.6123 1.325-1.3265 0-.7143-.612-1.3266-1.325-1.3266-.7142 0-1.326.6123-1.326 1.3266zm.3059 0c0-.6123.5101-1.1225 1.1221-1.1225.611 0 1.121.5102 1.121 1.1225 0 .6122-.51 1.1224-1.121 1.1224-.612 0-1.1221-.5102-1.1221-1.1224z"/></g></svg>