<svg fill="none" height="40" viewBox="0 0 95 40" width="95" xmlns="http://www.w3.org/2000/svg" xmlns:xlink="http://www.w3.org/1999/xlink"><clipPath id="a"><path d="m0 0h95v40h-95z"/></clipPath><g clip-path="url(#a)" fill="#474f5d"><path d="m66.4021 11.2416h-5.0063c-.1137 0-.2275.1138-.2275.2276v2.9013c0 .1138.1138.2276.2275.2276h5.0063c.1137 0 .2275-.1138.2275-.2276v-2.9013c.0569-.1138-.0569-.2276-.2275-.2276zm-.0569 4.3236h-9.6711c-.1138 0-.2845.1137-.3414.2275l-1.2515 4.7218-.0569.2276-1.4791-5.0631c-.0569-.1138-.1707-.2276-.3414-.2276h-3.7546c-.1138 0-.2845.1138-.3414.2276l-1.4222 4.7217-.0569.2276-.0569-.1138-.5689-2.3324-.6257-2.3325c-.0569-.1138-.1707-.2275-.3414-.2275h-7.5662v-4.096c0-.1138-.1707-.2845-.3413-.2276l-4.7787 1.4791c-.1707.0569-.2275.1138-.2275.2276v2.56h-1.2516c-.1138 0-.2276.1137-.2276.2275v3.6409c0 .1138.1138.2276.2276.2276h1.2516v4.4373c0 3.1289 1.7066 4.608 4.8355 4.608 1.3085 0 2.56-.2844 3.4133-.7395v-3.7547c0-.1707-.1706-.2276-.2844-.2276-.512.2276-.9102.2845-1.3653.2845-.8534 0-1.3085-.3414-1.3085-1.3085v-3.2426h2.7307c.1138 0 .2275-.1138.2275-.2276v-3.072l3.584 11.8898c.0569.1138.1707.2275.3414.2275h3.9822c.1138 0 .2844-.1137.3413-.2275l1.7067-5.2907.8533 2.7307.7965 2.5031c.0569.1138.1706.2276.3413.2276h3.9822c.1138 0 .2845-.1138.3414-.2276l3.6409-11.9467v11.9467c0 .1138.1137.2276.2275.2276h4.8356c.1137 0 .2275-.1138.2275-.2276v-12.4018c0-.1707-.1138-.2844-.2275-.2844zm6.3715-4.3236h-4.8355c-.1138 0-.2276.1138-.2276.2276v16.7822c0 .1138.1138.2276.2276.2276h4.8355c.1138 0 .2276-.1138.2276-.2276v-16.7822c0-.1138-.1138-.2276-.2276-.2276zm6.4285 0h-5.0063c-.1137 0-.2275.1138-.2275.2276v2.9013c0 .1138.1138.2276.2275.2276h5.0063c.1137 0 .2275-.1138.2275-.2276v-2.9013c.0569-.1138-.0569-.2276-.2275-.2276zm-.0569 4.3236h-4.8356c-.1138 0-.2275.1137-.2275.2275v12.4587c0 .1138.1137.2276.2275.2276h4.8356c.1137 0 .2275-.1138.2275-.2276v-12.4018c0-.1707-.1138-.2844-.2275-.2844zm8.0213-.2845c-4.2667 0-7.2818 3.1289-7.2818 6.7698v.0569c0 3.6409 3.0151 6.7129 7.2249 6.7129 4.2667 0 7.2818-3.1289 7.2818-6.7698v-.0569c0-3.6409-3.0151-6.7129-7.2249-6.7129zm2.048 6.7698c0 1.2516-.8533 2.2187-2.048 2.2187s-2.1049-1.024-2.1049-2.2756v-.0569c0-1.2515.8534-2.2186 2.048-2.2186 1.1947 0 2.1049 1.024 2.1049 2.3324zm-75.1502-16.384c-7.85069 0-14.222244 6.3716-14.222244 14.2222 0 7.8507 6.371554 14.2222 14.222244 14.2222 7.8506 0 14.2222-6.3715 14.2222-14.2222 0-7.8506-6.3716-14.2222-14.2222-14.2222zm0 24.6898c-5.80269 0-10.46757-4.6649-10.46757-10.4676 0-5.8026 4.66488-10.46753 10.46757-10.46753 5.8026 0 10.4675 4.66493 10.4675 10.46753 0 5.8027-4.6649 10.4676-10.4675 10.4676z"/><path d="m17.5339 19.3197c1.6338 0 2.9582-1.3244 2.9582-2.9582s-1.3244-2.9582-2.9582-2.9582-2.9582 1.3244-2.9582 2.9582 1.3244 2.9582 2.9582 2.9582z"/><path d="m17.5339 26.374c1.6338 0 2.9582-1.3245 2.9582-2.9582 0-1.6338-1.3244-2.9583-2.9582-2.9583s-2.9582 1.3245-2.9582 2.9583c0 1.6337 1.3244 2.9582 2.9582 2.9582z"/><path d="m10.4797 26.374c1.6338 0 2.9582-1.3245 2.9582-2.9582 0-1.6338-1.3244-2.9583-2.9582-2.9583-1.63378 0-2.95822 1.3245-2.95822 2.9583 0 1.6337 1.32444 2.9582 2.95822 2.9582z"/><path d="m10.4797 19.3197c1.6338 0 2.9582-1.3244 2.9582-2.9582s-1.3244-2.9582-2.9582-2.9582c-1.63378 0-2.95822 1.3244-2.95822 2.9582s1.32444 2.9582 2.95822 2.9582z"/></g></svg>