<svg fill="none" height="24" viewBox="0 0 56 24" width="56" xmlns="http://www.w3.org/2000/svg"><g fill="#474f5d"><path d="m23.3454 8.51287c2.6269-6.48137-2.2879-8.243217-5.4797-8.243217h-10.5923c.30829.194833.53504.495674.63775.846097.1027.35042.07429.72635-.07991 1.05727l-6.17177 19.75538c-.14766.3842-.37054.7349-.65554 1.0314-.284997.2965-.626356.5328-1.00393.6951h8.56565c-.33961-.1032-.62495-.3364-.79415-.649-.16919-.3125-.20862-.6793-.10973-1.0208l2.23852-7.1466s10.31691 1.4152 13.41691-6.32563zm-8.3255-6.42477c1.1228 0 4.2369.15567 2.2173 6.04267-2.1184 6.18423-6.7579 4.91053-6.7579 4.91053l3.4249-10.9532h1.1086z"/><path d="m30.2022 23.669h5.7693c-2.1165-.7792-4.0425-2.0023-5.6493-3.5874 1.2738-1.2136 2.0452-2.863 2.1609-4.6205h-2.9871c.1733.1113.3162.264.416.4443.0999.1803.1535.3826.156.5888-.0216.7895-.2909 1.552-.7697 2.1794-1.088-1.4595-1.8141-3.1571-2.1185-4.9531 1.4756-.6005 2.8649-1.3952 4.1311-2.3633.4434-.3348.8107-.7603 1.0773-1.2483.2666-.48796.4266-1.02725.4691-1.58196v-.0849c.0018-.34654-.0661-.68988-.1996-1.00958-.1334-.31971-.3297-.60924-.5772-.85134-.4914-.44137-1.0815-.75789-1.7205-.9229-.6391-.16501-1.3084-.17368-1.9515-.02525-.972.19455-1.877.63824-2.6268 1.28779-1.7372 1.64157-1.9561 4.33744-1.9561 5.56154v.6509l-.2754.1132c-1.2711.4741-4.6677 1.3727-5.8752 4.1747-.2509.6425-.3779 1.3267-.3742 2.0166-.015.8505.2129 1.6877.6567 2.4128.8544 1.3444 2.3091 2.1935 4.6324 2.1228 2.528-.0425 5.0207-1.769 5.4585-2.1228.6422.6605 1.3523 1.2511 2.1185 1.7619zm0-15.63028c-.2966 1.88214-2.7328 3.78548-3.326 4.04028-.1815-1.4195.1088-2.85939.8262-4.09688.579-.90569 1.3629-1.30193 1.9913-1.0755.5085.17689.5579.63679.5156 1.1321zm-3.3613 12.59478c-.9035.5214-1.8982.8648-2.9305 1.0118-1.1652.1132-3.1-.3396-3.0859-2.6746 0-1.9953 2.1608-3.4529 3.3401-3.9624.5346 2.0271 1.4448 3.9353 2.6834 5.6252z"/><path d="m47.7219 2.10936c3.4248-.82786 6.2494 1.86092 6.5037 2.04489l.9744-3.11331c-1.3487-.410395-11.1855-3.74306-18.134 4.20298-4.2722 4.88928-5.3173 14.90148.0989 17.59028 5.7975 2.8727 12.2023-.4387 12.7107-.6722l2.6128-8.4555c.1354-.5025.3975-.9617.761-1.3334.3636-.3717.8165-.6435 1.3151-.7893h-9.18c.4147.1143.7675.388.9818.7617.2142.3737.2725.8171.1622 1.2336l-2.6481 8.4555c-.3531.0637-7.7677 1.9175-3.6155-11.0593.9109-2.78787 3.4036-7.88948 7.4781-8.873z"/></g></svg>