<svg fill="none" height="24" viewBox="0 0 46 24" width="46" xmlns="http://www.w3.org/2000/svg" xmlns:xlink="http://www.w3.org/1999/xlink"><clipPath id="a"><path d="m0 0h45.6v24h-45.6z"/></clipPath><g clip-path="url(#a)"><path d="m36.1282.531711-3.2747 13.419389-3.2839-13.419389h-9.485v4.955329c-1.1524-4.33635-5.3806-5.4239345-9.1586-5.48571584-4.60651-.06061566-9.7106 1.95018584-9.88764 8.08635584h6.37114c0-1.85227 1.68362-2.91305 3.2735-2.88624 1.9521-.01631 2.85.82298 2.8951 2.12971-.0671 1.13421-.7313 1.92338-2.8789 1.92338h-2.14299v4.45287h1.94509c1.1051 0 2.6429.6062 2.7031 2.1915.074 1.8896-1.23 2.7196-2.835 2.7359-2.86502-.1072-3.60442-2.3244-3.60442-4.2314h-6.612972c.027771 1.2845-.013886 9.6577 10.350492 9.5959 4.9652.0454 8.5789-2.0575 9.5983-4.9565v4.4436h6.3781v-14.47783l3.5269 14.47783h5.6989l3.5396-14.46151v14.47431h6.5077v-22.967489zm-16.0227 13.387889c-.8123-1.6926-1.9556-2.4328-2.5989-2.6671 1.3503-.605 2.0573-1.42562 2.5989-3.06107z" fill="#474f5d"/></g></svg>