<svg fill="none" height="40" viewBox="0 0 100 40" width="100" xmlns="http://www.w3.org/2000/svg"><g fill="#474f5d"><path d="m99.9999 39.0561c.0031.1794-.0474.3556-.1443.5062-.0968.1506-.2359.2687-.3996.3394-.1637.0706-.3445.0906-.5195.0573-.175-.0332-.3362-.1182-.4631-.2441-.1269-.1258-.2138-.2869-.2496-.4627s-.0189-.3584.0486-.5244c.0675-.1661.1824-.3082.3303-.4082.1478-.1.3219-.1534.4999-.1535.2355 0 .4616.0933.6295.2598s.2641.3928.2678.6302zm-1.6236 0c0 .1941.0765.3803.2127.5176s.321.2144.5136.2144c.0948 0 .1885-.019.2759-.056.0873-.0369.1664-.0911.2328-.1593.0663-.0681.1184-.149.1534-.2377.0349-.0887.0519-.1836.05-.279 0-.1904-.075-.3729-.2085-.5075-.1336-.1346-.3147-.2102-.5036-.2102-.0947-.0019-.1888.0152-.2769.0504-.088.0352-.1682.0878-.2358.1546-.0677.0669-.1214.1466-.1581.2347-.0367.088-.0555.1825-.0555.278zm.6978.0717h-.0854v.3589h-.1567v-.89h.2706c.1994 0 .3134.1005.3134.2584.0015.0559-.016.1106-.0497.1551-.0337.0444-.0816.0758-.1355.0889l.2279.3876h-.1852zm0-.1148c.1282 0 .1994 0 .1994-.1579s-.0712-.1435-.1994-.1435v.287z"/><path d="m78.3516 36.3002c.7018 1.1872 1.7123 2.1584 2.9223 2.8086 1.2099.6502 2.5732.9545 3.9425.8802h11.6644l-13.7723-16.8511c-6.352.2584-9.7132 4.3061-9.0153 6.086z"/><path d="m79.4055 16.7219c-5.8108 0-10.1405.9617-10.1405 3.2583.0618 1.0271.3963 2.0185.9685 2.8707l3.8597 6.3873c-.2557-.6033-.3866-1.2529-.3846-1.909 0-3.8467 3.3897-6.0428 7.2351-6.8466 1.0936-.2108 2.2051-.3117 3.3185-.3015.8454-.0404 1.6917.0565 2.5066.2871-.3418-1.5071-1.41-3.7463-7.3633-3.7463z"/><path d="m64.1236 12.7316c1.5951 2.6411 2.1933 3.3013 5.996 3.3013h7.2493l-9.9696-12.74593c-2.2218-2.741535-3.4894-3.2439093-5.5118-3.28697h-5.4263z"/><path d="m55.0312 32.3288c2.1936 0 3.2402-.9031 3.2402-2.2541s-.9319-1.8784-1.9212-2.2035l-.8172-.2745c-.681-.2312-1.0323-.5274-1.0323-.9682 0-.4407.423-.7947 1.3047-.7947.5835.018 1.1551.1713 1.6703.448.0444.024.0932.0388.1434.0433.0573 0 .1218 0 .129-.1662 0-.2456.0502-.7224.0502-1.1414-.6702-.3257-1.4067-.489-2.1506-.4769-1.8137 0-2.932.9537-2.932 2.2035.0104.4942.1881.97.5036 1.3485.3156.3784.75.6368 1.2312.7322l.8244.2746c.9463.3179 1.2187.6068 1.2187 1.0548 0 .5779-.6165.8669-1.6775.8669-.595-.0043-1.1802-.153-1.7061-.4334-.0451-.0296-.0969-.047-.1505-.0506-.1219 0-.1219.1734-.1291.195-.0072.0217-.043.8598-.043 1.1199.7069.3144 1.4711.4768 2.2438.4768zm-3.9714-1.7556c.0932 0 .1147.0867.129.1734 0 .3179.0502 1.0403.0502 1.221-.7424.2601-1.5224.3943-2.3083.3973-2.3657 0-3.785-1.2354-3.785-3.8868 0-2.283 1.2115-3.9014 3.3907-3.9014.4274-.0309.8563.0321 1.2572.1845s.7642.3908 1.0648.6985c.3005.3077.5313.6776.6762 1.0839.1449.4064.2006.8396.1632 1.2698 0 .2095 0 .5635-.0574 1.0403h-4.7671c-.0121.3011.0405.6012.154.88.1135.2787.2853.5295.5037.7352s.4783.3615.7619.4568c.2836.0954.5843.1279.8815.0954.6048-.0108 1.1996-.1564 1.742-.4262.0446-.0213.0945-.0288.1434-.0217zm-4.165-2.8899h3.1184c.0645-1.2065-.5664-1.8784-1.5126-1.8784-.9463 0-1.5556.7081-1.6058 1.8784zm-4.6668 4.5155v-4.8478c0-.9247-.4158-1.4883-1.1971-1.4883-1.0395 0-1.7277 1.1126-1.7277 2.6154v3.7062h-1.6846v-5.498c0-.6068-.0574-1.4882-.086-1.9867h1.3548c.1506 0 .1936.065.2007.2023.0072.1372 0 .9319 0 .9319h.0359c.2129-.4182.5433-.7638.95-.9938s.8717-.3342 1.3368-.2994c.32-.026.6418.0153.9451.1213s.5814.2744.8167.4945.4225.4872.5499.7841c.1274.297.1922.6174.1901.9409v5.3029zm-15.3552-3.6124v3.6124h-1.6846v-5.563c0-.5347-.0645-1.5533-.086-1.9218h1.362c.1505 0 .1864.0578.1935.2095.0072.1517 0 .9248 0 .9248h.0431c.1565-.4014.4349-.7426.7954-.9748.3605-.2323.7846-.3437 1.2118-.3184.2998.0007.5968.0596.8746.1734 0 .3251-.0359 1.0331-.0502 1.2209-.0144.1879-.0645.159-.1219.159-.0376.0098-.0771.0098-.1147 0-.2289-.0871-.4723-.1288-.7169-.1228-.8602-.0362-1.7061.6213-1.7061 2.5503zm5.3765 3.6124v-10.2301h-1.6847v10.2156zm-10.5881 0v-7.4992h1.6846v7.4847zm0-8.5829v-1.6545h1.7277v1.64zm12.4519 8.5829v-7.4992h1.6847v7.4847zm0-8.5829v-1.6545h1.7277v1.64zm-15.0111 8.5684-.7742-2.2107h-4.1578l-.7169 2.2107h-1.7921l3.699-9.8327h1.9642l3.6488 9.8327zm-2.8244-8.041-1.5771 4.5009h3.19z"/><path d="m56.6824 19.8379v-4.8333c0-.9247-.4158-1.4882-1.1972-1.4882-1.0395 0-1.7348 1.1126-1.7348 2.6153v3.7062h-1.6846v-5.4979c0-.6069-.0502-1.4883-.0789-1.9868h1.3549c.1505 0 .1935.065.2007.2023s0 .932 0 .932c.2124-.417.5417-.7619.947-.9918.4053-.23.8687-.3348 1.3326-.3014.32-.0261.6418.0152.9451.1212s.5815.2744.8167.4945c.2353.2202.4226.4872.55.7841.1274.297.1921.6174.1901.9409v5.3029zm-13.1832-1.6111c.0431 0 .1076 0 .1219.1662 0 .354.043.9392.0502 1.1198-.608.3171-1.2798.4901-1.9642.5057-2.251-.0361-3.6202-1.351-3.6202-3.9591 0-2.413 1.233-3.894 3.6345-3.894.6844.0161 1.3561.189 1.9642.5057 0 .2673 0 .8669-.0502 1.1198 0 .1084-.0645.1589-.1218.1589-.0458.0021-.091-.0105-.1291-.0361-.4679-.246-.985-.3818-1.5125-.3973-1.4338 0-2.0216.9464-2.0216 2.543 0 1.445.466 2.5431 2.0216 2.5431.499-.0209.9878-.1489 1.4337-.3757zm5.8281 1.6473c-.0342.0055-.0692.0032-.1024-.0069-.0332-.01-.0637-.0275-.0893-.0512-.0255-.0236-.0454-.0528-.0581-.0853-.0128-.0325-.018-.0674-.0154-.1023 0-.2456-.0502-.7225-.0502-.7225-.2529.3618-.5927.6529-.9876.8462-.3949.1934-.8321.2825-1.2705.2592-.3129.0064-.6237-.0523-.9131-.1722-.2894-.12-.5512-.2987-.7691-.5251s-.3872-.4955-.4974-.7907c-.1101-.2952-.1588-.61-.143-.925 0-1.7412 1.6774-2.6226 4.1793-2.6226h.3297v-.2745c0-.7875-.552-1.2065-1.5842-1.2065-.6965.0091-1.3822.1744-2.0073.484-.0352.0267-.0778.0419-.1218.0434-.0179.0012-.0358-.0016-.0525-.0082s-.0317-.0168-.044-.0299c-.0124-.0131-.0217-.0288-.0273-.0459-.0056-.0172-.0074-.0354-.0053-.0533 0-.2817-.043-.8236-.0501-1.1704.7736-.3029 1.5933-.4691 2.423-.4913 2.2079 0 3.1613 1.0332 3.1613 2.6804v2.8899c-.0034.6837.0397 1.3668.1291 2.0445zm-.4086-3.8147h-.2867c-2.1148 0-2.5305.7225-2.5305 1.4955-.0083.1597.0168.3194.0737.4686.0569.1493.1443.2849.2565.3979.1121.1131.2467.2012.3948.2585s.3065.0826.4649.0743c1.0538 0 1.6273-1.0186 1.6273-2.0951zm-21.1474 2.1674c.086 0 .1147.0867.1218.1734 0 .3179.0574 1.0404.0574 1.221-.7424.2601-1.5224.3944-2.3083.3973-2.3657 0-3.7851-1.2354-3.7851-3.894 0-2.2758 1.2115-3.8941 3.3908-3.8941.4274-.031.8563.032 1.2572.1844.4009.1525.7642.3908 1.0647.6985.3006.3078.5313.6776.6763 1.0839.1449.4064.2006.8396.1632 1.2698 0 .2095 0 .5635-.0645 1.0331h-4.76c-.0111.3021.0425.6031.1573.8823.1147.2793.2879.5304.5077.7361.2197.2057.481.3613.7658.456.2848.0948.5866.1265.8847.093.6008-.0184 1.1904-.1688 1.7276-.4407.0468-.014.0966-.014.1434 0zm-4.165-2.8898h3.1183c.0646-1.2065-.5591-1.8784-1.5125-1.8784-.9535 0-1.5628.708-1.6058 1.8784zm-4.6668 4.5154v-4.8044c0-.867-.3584-1.5316-1.233-1.5316-.9893 0-1.5556 1.0837-1.5556 2.6081v3.7134h-1.6846v-4.8044c0-.7874-.3226-1.5171-1.2258-1.5171-.9033 0-1.5556 1.0837-1.5556 2.6586v3.6629h-1.69183v-5.4546c0-.7224-.06452-1.6978-.07886-2.0301h1.34769c.1506 0 .2007.0506.2079.2095s0 .9248 0 .9248c.2063-.4141.5292-.7577.9283-.9877.3992-.2301.8567-.3363 1.3155-.3055.4538-.0204.9029.0995 1.2873.3435.3843.2441.6855.6006.8633 1.0219.2071-.4155.526-.7638.9202-1.0053.3942-.2414.8479-.3662 1.3092-.3601 1.5126 0 2.5377.8163 2.5377 2.4636v5.18zm12.4519-3.6123v3.6123h-1.6846v-5.563c0-.5346-.0574-1.5533-.086-1.9218h1.362c.1505 0 .1936.0578.1936.2096v.9247c.1587-.4013.4386-.7421.8001-.9741.3615-.2321.7863-.3437 1.2142-.3191.2998.0018.5965.0606.8746.1734 0 .3251 0 1.0331-.0502 1.221-.0501.1878-.0645.1589-.129.1589-.0376.0098-.0771.0098-.1147 0-.2277-.0913-.472-.1332-.7169-.1228-.8172-.0361-1.6631.6213-1.6631 2.5503zm3.5843 3.6123v-7.4992h1.6847v7.4847zm0-8.5829v-1.65445h1.7205v1.63995zm-27.53466 8.5684-.77422-2.2107h-4.13629l-.76705 2.2107h-1.76348l3.67751-9.8327h1.9642l3.64166 9.8327zm-2.82444-8.041h-.03585l-1.57709 4.501h3.19003z"/></g></svg>