<svg fill="none" height="40" viewBox="0 0 63 40" width="63" xmlns="http://www.w3.org/2000/svg"><path clip-rule="evenodd" d="m0 19.9988c0-6.5456 13.9642-11.76638 31.3808-11.76638 17.3043 0 31.3807 5.27688 31.3807 11.76638s-14.0764 11.7692-31.3807 11.7692c-17.3016 0-31.3808-5.2629-31.3808-11.7692zm43.8879 2.6243c-.0674-.0253-.1376-.0758-.146-.1319-.0102-.0357-.0062-.0739.0113-.1067.2526-.5136.4322-1.1676-.1348-1.4399-.5445-.261-1.3781.2217-2.1332 1.148-.6175.7607-.9543 1.5326-.9656 2.2876-.0028.2667.0983.5979.3341.7214.5333.2778 1.176-.1376 1.642-.5221.3059-.2526.5614-.5137.7859-.8505.0188-.0281.0373-.0556.0554-.0824.0147-.0219.0292-.0434.0435-.0645l.0005-.0008c.195-.2887.3493-.5171.5181-.874.0281-.0589.0169-.0758-.0112-.0842zm5.8355-6.1246c.0926 0 .1319.0533.0926.1263v-.0028c-.0664.1135-.462.725-1.0068 1.5669l-.0003.0006-.0003.0003c-1.4362 2.2199-3.9084 6.0408-4.1179 6.5637-.0927.233-.1039.407-.0085.5333.2414.3228.7747.1348 1.1115-.0982.7145-.4945 1.2722-1.0615 1.814-1.6123l.0002-.0002c.2117-.2153.421-.428.6362-.633.0421-.0309.1179-.0449.1684 0 .0434.0412.0948.0866.1479.1336.0844.0747.1734.1533.2423.2257.0561.0589.0337.115.0056.1487-.7466.9123-1.5718 1.774-2.3634 2.3831-1.2294.9515-2.456 1.1957-3.0623.5866-.2245-.2302-.348-.553-.3648-.828-.0085-.1488-.0842-.1572-.1544-.087-.727.7185-1.9873 1.5101-3.1325.9487-.9599-.4772-1.1817-1.6196-1.002-2.5823.0056-.0197-.0169-.1572-.1348-.0758-.1964.1431-.4603.3003-.7859.421-.2991.1376-.6251.2066-.9543.2021-.2373.0024-.4711-.0575-.6779-.1737-.2069-.1163-.3797-.2848-.501-.4887-.1684-.2498-.233-.6288-.2526-.9038 0-.0309-.0393-.087-.0842-.0141-.6285.9574-1.2226 1.8912-1.8332 2.8509-.1502.2361-.3014.4738-.4544.7139-.0393.0561-.0758.0926-.1572.0982h-1.5326c-.0954 0-.1403-.073-.0898-.1628.1037-.1989.3797-.6307.7374-1.1905l.0001-.0001c.5914-.9253 1.4061-2.2002 2.0357-3.3509.2779-.5081.2217-.7691.0477-.8814-.2161-.1403-.6456.0702-1.0104.3481-.8378.6336-1.5632 1.5683-2.0218 2.1592l-.0001.0001c-.0838.108-.1586.2044-.2236.2855-.0817.1-.1619.2162-.2554.3518-.1927.2793-.4422.641-.8786 1.1133-1.0217 1.1116-2.3774 1.7487-3.6826 1.308-.3439-.1169-.6537-.3166-.9024-.5814-.2486-.2647-.4284-.5865-.5235-.9371-.0393-.1347-.1179-.174-.1909-.0842-.2105.2639-.6427.6512-1.002.8954-.0393.0281-.1376.087-.2218.0449-.1567-.1537-.2901-.3296-.3957-.5221-.016-.0346-.0204-.0733-.0129-.1107.0076-.0373.0268-.0713.055-.097.5164-.4519.7971-.7101 1.0217-.9908.1899-.2507.3404-.529.4463-.8252.3115-.7915 1.0273-2.268 2.4503-3.0314.5446-.2891 1.0947-.4996 1.7066-.5698.2611-.0281.4772.0028.5558.2105l.1487.4098c.0281.0842.0057.1488-.0926.1853-.8392.3199-1.6813.8139-2.2651 1.5943-.6596.8869-.8365 1.9507-.3958 2.5626.3228.4463.8449.5249 1.3445.3649.7607-.2386 1.4062-.9487 1.7403-1.7346.362-.8589.421-1.875.1543-2.7676-.0449-.1544-.0056-.2723.0955-.3565.1729-.1417.4014-.2546.5147-.3107.0191-.0094.0349-.0172.0466-.0233.0798-.0429.1726-.055.2606-.0337.0881.0212.1652.0742.2166.1488.2909.4797.4435 1.0305.4407 1.5915.0196.1263.073.1291.1319.0617.1283-.1362.2543-.2748.3797-.4129.3605-.3967.7165-.7883 1.1079-1.1028.4828-.3845 1.1031-.6989 1.6814-.6848.7466.0168 1.1199.5248 1.0946 1.4286-.0028.1123.0786.1067.1348.0281.173-.261.385-.4938.6287-.6905.5165-.4266 1.047-.6175 1.5971-.5782.1656.0115.327.0569.4742.1336.1472.0766.277.1828.3813.3119.1043.129.1809.2782.225.4382.044.16.0546.3274.031.4917-.0273.2232-.1085.4364-.2367.6213-.1281.1848-.2992.3357-.4987.4397-.3564.1768-.7691.1459-1.0582-.1123-.1126-.1056-.1952-.2392-.2396-.387-.0443-.1479-.0488-.3049-.013-.4551.0141-.0645-.0701-.1263-.1403-.0533-.6652.6905-.713 1.5859-.2807 1.9873.48.4435 1.1957.1459 1.7206-.1937.5582-.3656 1.0423-.8052 1.5186-1.2377.3429-.3113.6818-.619 1.0413-.8927.5726-.4323 1.221-.8168 1.9507-.9179.4012-.0599.8112-.0115 1.1873.1404.5221.2105.8533.6512.8954 1.0329.0085.1123.0955.1263.1628.0281.1439-.2252.5074-.7758.9276-1.4122v-.0001l.0002-.0003c.7843-1.1881 1.7659-2.675 1.8847-2.9016.0533-.1094.1151-.1263.233-.1263zm-21.5315.9712c.0197.1038.0618.1235.1095.1123.2618-.0713.4891-.2348.64-.4604.1403-.2021.2049-.494.0673-.6119-.1235-.1038-.3228-.0757-.4715.0562-.1264.1114-.2239.2519-.284.4094-.0601.1574-.0812.327-.0613.4944zm-11.713 9.0072c-1.7122.0112-3.2223-1.0469-3.3963-2.8826-.1002-.9546.1746-1.9108.7662-2.6666.5109-.6652 1.3754-1.2153 2.1052-1.3501.2358-.0449.5558-.0168.6877.1404.2077.2414.1487.5052-.059.6119-.5585.2835-1.2294.7719-1.5606 1.4371-.153.2827-.2257.6019-.2104.923.0154.321.1182.6318.2974.8987.6877 1.0385 2.6076 1.0666 4.39-.5895.4434-.407.8364-.7971 1.2378-1.2575.7859-.8982 1.047-1.2266 2.0911-2.6749.0112-.0168.0168-.0393.0112-.0477-.0084-.0197-.0224-.0225-.0533-.0281-.6961.0225-1.3052.2302-1.8946.6708-.1684.1236-.4154.1067-.5221-.0561-.1179-.1852-.0337-.4266.1628-.5614.8595-.6001 1.7927-.7533 2.7495-.9104.0994-.0163.1989-.0326.2987-.0495 0 0 .073 0 .1348-.0758.1806-.2331.3429-.456.504-.6774l.0001-.0001c.2269-.3118.4517-.6206.7225-.9505.4687-.5726 1.0722-1.1003 1.5325-1.496.5506-.4716.9318-.6758 1.2915-.8684l.0001-.0001c.062-.0332.1234-.0661.1848-.0999.1123-.0561-.014-.1263-.0477-.1263-.1722-.0324-.3449-.0655-.518-.0986-2.1828-.4181-4.4303-.8486-6.5862-.0502-1.6111.6007-2.3184 1.8806-1.9788 2.7339.2414.6063 1.0385.7017 1.7852.3368.6175-.3003 1.1929-.7915 1.5999-1.4202.2245-.3509.7045-.0983.4463.5108-.6821 1.5999-1.9817 2.8686-3.5647 2.922-1.3501.0449-2.2203-.9488-2.2175-2.1726.0056-2.4139 2.6946-4.0025 5.5155-4.2411 2.38-.1964 4.6722.1884 6.9907.5776.9955.1671 1.9959.335 3.0102.4581 2.5879.3116 5.0692.32 7.6711-.2807.3088-.0645.5221.1319.5053.4407-.0281.4491-.3761.8813-1.2322 1.3473-.974.5361-1.9929.6989-3.0595.7073-1.7663.0154-3.4505-.454-5.1371-.9241-.7686-.2142-1.5376-.4285-2.3151-.5972.0005.0204.002.0415.0035.0627.0066.0928.0134.189-.0597.2461-1.3753 1.0104-2.6188 2.0405-3.4524 3.4861-.0281.0337-.0113.0673.0365.0617.1996-.01.3935-.0188.5838-.0274h.0001c.4999-.0227.9752-.0442 1.4651-.0848.1151-.0085.1207-.0365.1122-.1235-.0364-.2669-.008-.5387.0829-.7923.0908-.2536.2415-.4815.4392-.6645.4491-.4014 1.0105-.4491 1.3838-.1572.421.3284.3846.9235.1544 1.3669-.1037.1953-.2457.3677-.4173.5071-.1717.1393-.3696.2427-.582.3041 0 0-.0785.0169-.0673.087.0084.0671.1939.1952.3509.3036.106.0732.1991.1375.2161.168.0421.073.0196.1824-.0562.2667-.03.0365-.0677.066-.1104.0864-.0426.0203-.0893.0311-.1366.0314-.0843 0-.137-.029-.2424-.087l-.0102-.0056c-.2676-.143-.5057-.3354-.7017-.567-.0674-.0814-.1011-.0842-.261-.073-.7298.0422-1.8694.1516-2.6385.2471-.1881.0224-.2161.0589-.2526.1235l-.0818.1348c-1.2059 1.9882-2.4932 4.1107-3.904 5.5434-1.5437 1.5691-2.8293 1.9817-4.1934 1.9929zm-14.11004-6.4727c0-5.4201 12.98734-9.8465 29.01174-9.8465 16.0216 0 29.0118 4.4293 29.0118 9.8465 0 5.4173-12.9874 9.8465-29.0118 9.8465s-29.01174-4.4292-29.01174-9.8465zm-1.05819 0c0 5.9309 13.46173 10.7391 30.06993 10.7391 16.6054 0 30.0672-4.8082 30.0672-10.7391 0-5.9337-13.4618-10.73906-30.0672-10.73906-16.6082 0-30.06993 4.80536-30.06993 10.73906z" fill="#474f5d" fill-rule="evenodd"/></svg>