<svg fill="none" height="40" viewBox="0 0 68 40" width="68" xmlns="http://www.w3.org/2000/svg"><path clip-rule="evenodd" d="m36.708 5.854v3.80384l-4.7032 1.01186v-3.82258zm9.7812 5.921c-1.8364 0-3.0169.862-3.6727 1.4616l-.2436-1.1618h-4.1224v21.8487l4.6845-.9932.0188-5.3029c.6746.4872 1.6677 1.1805 3.3166 1.1805 3.3541 0 6.4085-2.6982 6.4085-8.6382-.0188-5.4341-3.1106-8.3947-6.3897-8.3947zm-1.1243 12.9106c-1.1056 0-1.7614-.3935-2.2111-.8807l-.0188-6.9519c.4872-.5434 1.1618-.9181 2.2299-.9181 1.7051 0 2.8856 1.9113 2.8856 4.3659 0 2.511-1.1617 4.3848-2.8856 4.3848zm22.2797-4.3285c0-4.797-2.3235-8.5821-6.7644-8.5821-4.4597 0-7.158 3.7851-7.158 8.5446 0 5.6402 3.1855 8.4883 7.7576 8.4883 2.2298 0 3.9162-.5059 5.1904-1.2179v-3.7476c-1.2742.637-2.7357 1.0305-4.5908 1.0305-1.8176 0-3.4291-.6371-3.6352-2.8481h9.1629c0-.1033.0068-.3376.0145-.6077v-.0006-.0001-.0003l.0001-.0007v-.0006-.0004c.0105-.3668.0229-.7988.0229-1.0573zm-9.2566-1.7802c0-2.1174 1.2929-2.9981 2.4734-2.9981 1.1431 0 2.361.8807 2.361 2.9981zm-21.68-6.4829h-4.7032v16.3959h4.7032zm-10.0434.0001.2998 1.3867c1.1056-2.0238 3.2979-1.6115 3.8976-1.3867v4.3098c-.5809-.2061-2.4547-.4685-3.5603.9744v11.1117h-4.6845v-16.3959zm-9.0694-4.06648-4.5721.97438-.0188 15.0092c0 2.7733 2.08 4.8157 4.8532 4.8157 1.5365 0 2.6608-.2811 3.2792-.6183v-3.8039c-.5996.2436-3.5603 1.1056-3.5603-1.6677v-6.652h3.5603v-3.9912h-3.5603zm-11.07422 7.81358c-.99312 0-1.59274.2811-1.59274 1.0118 0 .7979 1.03195 1.1489 2.31221 1.5844 2.08711.7098 4.83415 1.6442 4.84575 5.1051 0 3.3542-2.67956 5.2842-6.57708 5.2842-1.61148 0-3.37286-.3186-5.115501-1.0681v-4.4597c1.574001.862 3.560241 1.4991 5.115501 1.4991 1.04933 0 1.79886-.2811 1.79886-1.143 0-.8839-1.11866-1.2878-2.46918-1.7756-2.05676-.7427-4.6513-1.6797-4.6513-4.8015 0-3.3166 2.52964-5.3029 6.33348-5.3029 1.55526 0 3.09178.2436 4.64702.862v4.4034c-1.42407-.7682-3.22293-1.1992-4.64702-1.1992z" fill="#474f5d" fill-rule="evenodd"/></svg>