<svg fill="none" height="40" viewBox="0 0 47 40" width="47" xmlns="http://www.w3.org/2000/svg" xmlns:xlink="http://www.w3.org/1999/xlink"><clipPath id="a"><path d="m0 0h47v40h-47z"/></clipPath><g clip-path="url(#a)" fill="#474f5d"><path d="m2.23889 27.9814-2.403679 7.8792h1.891439l.43385-1.4681h2.34471l.42213 1.4681h2.05681l-2.40349-7.8792zm.39667 4.8261.71405-2.4505.706 2.4505zm8.86784-.5416c-.0278-.0299-.0567-.0588-.0868-.0864.0592-.0224.1169-.0463.1733-.0725.2228-.1014.425-.2436.5961-.4193.1717-.1789.3055-.3909.3934-.6232.0915-.2367.138-.5087.138-.8079 0-.4126-.0741-.7693-.2199-1.0608-.145-.292-.3635-.5408-.6338-.7217-.265-.1784-.5874-.3073-.9582-.3829-.3564-.0726-.7578-.1098-1.19279-.1098h-2.45367v7.8792h1.88174v-3.0786h.05585c.20585 0 .37745.0454.52451.1392.14596.0929.25786.2299.34266.4197l1.1373 2.5197h2.1894l-1.3818-2.8107c-.1674-.3413-.3328-.5975-.5053-.784zm-.8184-1.5115c-.0547.1045-.1339.194-.2308.2608-.1064.075-.2384.1326-.393.1712-.16315.041-.3494.0616-.55378.0616h-.36664v-1.6587h.41352c.43074 0 .7509.0679.9514.202.1747.1167.2597.3135.2597.6019 0 .1394-.0264.2577-.0804.3612zm8.2186-1.8373c-.3168-.3198-.7164-.5592-1.1876-.7113-.4593-.1488-.9999-.2244-1.6067-.2244h-2.4886v7.8792h2.1663c.699 0 1.3105-.0956 1.8173-.2841.5146-.1911.9444-.4685 1.2772-.8241.3322-.355.5798-.7886.7355-1.2887.1527-.4895.23-1.0402.23-1.6366 0-.6501-.0775-1.2204-.2306-1.6951-.1564-.4862-.3961-.8948-.7128-1.2149zm-1.5385 4.7885c-.3267.3645-.8007.5416-1.449.5416h-.4139v-4.6523h.5134c.3628 0 .6673.0514.9048.1531.2304.0984.4086.2375.5449.4247.1392.192.2401.4329.2998.7156.0628.299.0948.6455.0948 1.0299 0 .8198-.1664 1.4212-.4948 1.7874zm7.0147-.7118c0 .2717-.0249.5032-.0745.6882-.0462.1727-.1141.3138-.2024.4192-.0835.1005-.1928.1761-.3161.2186-.1394.05-.3176.0752-.53.0752-.2247 0-.41-.0288-.5509-.086-.1293-.0509-.2438-.1338-.3327-.241-.089-.1075-.1528-.2425-.1896-.4018-.041-.1758-.0617-.3827-.0617-.6155v-5.0693h-1.8815v5.1546c0 .4259.0525.8169.1558 1.1619.1075.3585.2848.6684.5271.9205.2423.2519.5595.4469.9428.5787.3725.129.8226.1943 1.3378.1943.4606 0 .8833-.0653 1.2558-.1943.3809-.1311.7092-.3299.9761-.591.267-.2615.4741-.5907.6157-.9784.1392-.3807.2099-.8265.2099-1.3251v-4.9212h-1.8816zm2.8438-3.4273h1.6885v4.6978h-1.6885v1.5963h5.2822v-1.5963h-1.6885v-4.6978h1.6885v-1.5851h-5.2822zm10.5184 2.9045-2.1035-4.4896h-2.1297v7.8792h1.7525v-4.5749l2.1147 4.5749h2.1189v-7.8792h-1.7529zm7.8444-3.5573c-.5495-.7017-1.373-1.0573-2.4475-1.0573-.4597 0-.8981.0818-1.3032.2431-.4108.1635-.7737.418-1.079.7571-.3026.3362-.5429.7686-.7137 1.2848-.1691.5096-.2548 1.1208-.2548 1.8167 0 1.2855.2724 2.2856.8093 2.973.5494.7037 1.373 1.0603 2.4475 1.0603.4598 0 .8986-.0819 1.3037-.2432.411-.1636.7738-.4184 1.0787-.7569.3022-.336.5424-.7682.7139-1.2848.1686-.5094.2543-1.1206.2543-1.8168 0-1.2892-.2723-2.2906-.8092-2.976zm-1.2384 4.0939c-.0539.2908-.1379.5359-.2498.7289-.1062.1837-.2377.3183-.4016.4112-.1634.0925-.3669.1394-.6046.1394-.4703 0-.7981-.1758-1.0021-.5372-.2242-.3971-.3379-1.0227-.3379-1.8602 0-.3932.0282-.7465.0843-1.0494.0538-.2902.1384-.535.252-.7279.108-.1845.2399-.3195.403-.4127.161-.0922.363-.1389.6007-.1389.474 0 .8027.1755 1.0047.5363.2225.3972.3353 1.0235.3353 1.861 0 .3943-.0282.7474-.084 1.0495zm-.6705-27.95197h.3339v.88147h.2368v-.88147h.3366v-.21885h-.9073zm1.7312-.21885-.2284.74998-.2362-.74998h-.309v1.10032h.2227v-.70289l.2209.70289h.2033l.2095-.68469v.68469h.2216v-1.10032zm-10.8954 21.29232c-2.9829 0-5.5333-1.01-7.7778-3.0759-1.3865-1.2757-2.5297-2.8388-3.5814-4.464-1.0516 1.6252-2.1949 3.1883-3.5813 4.464-2.4117 2.2196-5.1767 3.2205-8.4516 3.0592-6.24514-.0273-11.317489-4.9766-11.317489-11.0562 0-6.09638 5.100189-11.0562 11.369189-11.0562 3.4305 0 6.3187 1.14005 8.829 3.48506 1.2058 1.12643 2.2237 2.4331 3.1522 3.80024.9285-1.36714 1.9465-2.67381 3.1521-3.80024 2.5103-2.34501 5.3985-3.48506 8.8291-3.48506 6.2691 0 11.3691 4.95982 11.3691 11.0562 0 6.0796-5.0721 11.0289-11.3175 11.0562-.2243.0111-.4489.0167-.6736.0167zm-9.0753-11.2204c1.2442 2.0272 2.4518 3.9141 3.9228 5.2677 1.6603 1.5281 3.4104 2.1567 5.6726 2.0366l.1019-.0028c4.1262 0 7.4833-3.2092 7.4833-7.154 0-3.9447-3.3571-7.15404-7.4833-7.15404-2.4359 0-4.4005.77536-6.1824 2.43994-1.3308 1.2434-2.4297 2.8364-3.5149 4.5666zm-14.2651-7.00654c-4.1263 0-7.48338 3.20934-7.48338 7.15404 0 3.9448 3.35708 7.154 7.48338 7.154l.102.0028c2.2625.1201 4.0121-.5085 5.6725-2.0366 1.4709-1.3536 2.6787-3.2405 3.9228-5.2677-1.0853-1.7302-2.1841-3.3232-3.5148-4.5666-1.7821-1.66458-3.7466-2.43994-6.1825-2.43994z"/><path d="m35.6485 13.638v-2.116h-2.1933v2.116h-2.107v2.1918h2.107v2.1317h2.1933v-2.1317h2.1071v-2.1918zm-27.63141-.0265h6.92571v2.2606h-6.92571z"/></g></svg>
