<svg fill="none" height="30" viewBox="0 0 75 30" width="75" xmlns="http://www.w3.org/2000/svg" xmlns:xlink="http://www.w3.org/1999/xlink"><clipPath id="a"><path d="m0 0h74.6957v30h-74.6957z"/></clipPath><g clip-path="url(#a)"><path d="m74.4021 22.8379h-3.8914l.6429-2.5665h-7.8119l-.6402 2.5665h-3.7724v-.527c.0582-.2898.1085-.5929.1799-.917.6878-2.7668 2.5105-5.5019 5.6665-5.5019 1.2486 0 2.4893.4743 2.32 2.195h4.6427c.1825-.8037.4894-2.1713-.3862-3.4256-.9894-1.365-2.984-1.913-5.5686-1.913-1.8518 0-4.5316.2924-6.8543 1.805v-13.965785h15.473zm-9.1319 3.7603c-.8574.1636-1.7276.2518-2.6005.2635-2.23 0-3.7829-1.033-3.8146-3.4414h7.2061zm-8.9151-12.7062v3.1884c-.963 1.325-1.6625 2.8214-2.0607 4.4084-.1168.4427-.1991.8938-.246 1.3491h-2.2725l1.9418-9.1857h-6.5395l-5.8622 9.1857h-.4338v-22.245015h15.465zm-8.6372 8.9459h-2.3253l3.521-5.5177zm-9.3886-9.2068h-3.8702l-2.6454 9.2068h-4.1163c2.0926-.7694 3.365-2.2424 3.7592-4.4242.3227-1.697.1693-2.8142-.5291-3.6495-1.0423-1.2438-3.1322-1.1384-4.9893-1.1384h-3.0686v-13.032915h15.4544zm-2.4734 9.2068 1.6295-5.7575.0556 5.7575zm-11.2562-2.1897c-.1508 0-.3016.0211-.4736.0211-.2275 0-.4021 0-.5687 0h-.9894l.4576-1.6864.2143-.8353.5291-1.9605h.6693.7672c1.3068 0 2.1348.0738 2.4364.4927.2301.3136.201.8591-.0714 1.6838-.4656 1.4256-1.0582 2.1476-2.9603 2.2925m-4.312-6.2081-.2407.7905-2.2142 7.3412-.0873.2635h-7.2802l-.56874-1.2095 7.84894-7.9815h-5.0422l-6.13731 6.5876 1.9867-6.5876h-3.71945v-13.059315h15.45446zm38.0437-14.448v14.9697c-.5046.3994-.9696.8458-1.3889 1.3333v-16.303h-16.6475v13.6311h-1.3783v-13.6311h-16.6502v13.6522h-1.3783v-13.6522h-16.65017v15.5731l-4.24853 14.0975h3.73796l1.8756-6.2477h.52908l3.10836 6.2477h4.5157l-3.0078-6.2477h6.8225l-1.8915 6.2477h4.0819l1.8676-6.2319h.8968v-.0158h9.087l-1.8015 6.2293h4.1163l1.7459-6.2293h1.8518l.0503 6.2293h3.4549l3.9681-6.2293h2.5951l-1.3385 6.2293h4.0527l1.3227-6.2293h2.3439c-.0926 1.9315.4021 3.6891 1.6877 4.8643 1.5714 1.4388 3.984 1.7128 5.7697 1.7128 2.535-.0304 5.0589-.3388 7.5262-.9196l1.4047-5.6575h4.6268v-23.4229z" fill="#474f5d"/></g></svg>