<svg fill="none" height="40" viewBox="0 0 95 40" width="95" xmlns="http://www.w3.org/2000/svg"><path d="m14.4692 5.71338c-7.84452 0-14.204063 6.34802-14.204063 14.17852 0 7.8309 6.359543 14.1784 14.204063 14.1784 7.8454 0 14.2043-6.3475 14.2043-14.1784 0-7.83-6.3589-14.17784-14.2045-14.17784zm6.5139 20.44952c-.2544.4165-.8006.5486-1.2178.2929-3.335-2.0334-7.5333-2.494-12.47759-1.3663-.47645.1083-.95137-.1897-1.05992-.6654-.10907-.4758.18827-.9499.6659-1.0582 5.41071-1.234 10.05191-.7027 13.79601 1.5813.4172.2557.5495.7992.2934 1.2157zm1.7386-3.8607c-.3206.5202-1.0025.6844-1.5232.3644-3.818-2.3426-9.638-3.021-14.15402-1.6526-.58568.1765-1.20427-.1529-1.38202-.7366-.1764-.5846.15384-1.2009.7385-1.3787 5.15854-1.5624 11.57144-.8056 15.95604 1.884.5207.32.6852 1.0006.3647 1.5197zm.1492-4.0201c-4.5779-2.7142-12.1308-2.9638-16.50166-1.6396-.70186.2125-1.4441-.183-1.6568-.8837-.21269-.7009.18319-1.4413.88556-1.6543 5.0174-1.5204 13.3582-1.2267 18.6288 1.8966.6327.374.8396 1.1879.4648 1.8173-.3732.6301-1.1907.8379-1.82.4637zm16.0388.5201c-2.4526-.5838-2.8885-.9935-2.8885-1.8545 0-.8133.7666-1.3607 1.9082-1.3607 1.1058 0 2.2016.4156 3.3515 1.2714.034.0259.0781.0362.1205.0294.0441-.0064.0814-.03.1068-.0653l1.1975-1.685c.0492-.0695.0356-.1651-.0305-.2181-1.3688-1.096-2.9089-1.6288-4.7102-1.6288-2.6477 0-4.4982 1.5863-4.4982 3.8559 0 2.4339 1.5961 3.2957 4.354 3.9609 2.3458.5396 2.7427.9917 2.7427 1.7996 0 .8957-.8006 1.4527-2.0897 1.4527-1.4315 0-2.6002-.4825-3.9062-1.6101-.0322-.0288-.0763-.0407-.1171-.039-.0441.0034-.0831.0237-.1102.0559l-1.3434 1.5949c-.0559.0677-.0491.1659.0153.2235 1.5198 1.3545 3.3889 2.069 5.4073 2.069 2.853 0 4.6967-1.556 4.6967-3.9653.0051-2.0329-1.2145-3.1588-4.2014-3.8842zm10.662-2.4144c-1.2365 0-2.2508.4863-3.0887 1.4827v-1.1215c0-.0886-.0712-.1607-.1594-.1607h-2.1965c-.0882 0-.1594.0721-.1594.1607v12.4615c0 .0881.0712.1609.1594.1609h2.1965c.0882 0 .1594-.0728.1594-.1609v-3.9331c.8379.9363 1.8522 1.3951 3.0887 1.3951 2.2983 0 4.6254-1.7659 4.6254-5.1418.0034-3.3766-2.3237-5.143-4.6237-5.143zm2.071 5.1429c0 1.7183-1.0601 2.9188-2.5798 2.9188-1.5011 0-2.6341-1.2546-2.6341-2.9188 0-1.6643 1.133-2.9186 2.6341-2.9186 1.4943-.0002 2.5798 1.227 2.5798 2.9184zm8.5164-5.1429c-2.9598 0-5.2784 2.2749-5.2784 5.1796 0 2.8736 2.3034 5.1238 5.2428 5.1238 2.9699 0 5.2954-2.2671 5.2954-5.1605 0-2.8836-2.3102-5.1425-5.2598-5.1425zm0 8.0786c-1.574 0-2.7613-1.2631-2.7613-2.9366 0-1.6811 1.1466-2.901 2.7257-2.901 1.5842 0 2.7783 1.2626 2.7783 2.9378 0 1.6807-1.1534 2.8998-2.7427 2.8998zm11.5796-7.8781h-2.417v-2.4662c0-.0884-.0712-.1605-.1594-.1605h-2.1965c-.0882 0-.1612.0721-.1612.1605v2.4662h-1.055c-.0882 0-.1594.0721-.1594.1607v1.8839c0 .0884.0712.1607.1594.1607h1.055v4.8753c0 1.9691.9821 2.9681 2.9208 2.9681.787 0 1.44-.1626 2.0557-.5113.0509-.0271.0814-.0813.0814-.1389v-1.7947c0-.0542-.0288-.1067-.0763-.1354-.0475-.0305-.1068-.0322-.156-.0068-.4224.2116-.8311.3098-1.2891.3098-.7039 0-1.0194-.32-1.0194-1.0345v-4.5308h2.417c.0882 0 .1595-.0721.1595-.1606v-1.8838c.0034-.0886-.0679-.1607-.1578-.1607zm8.4197.0096v-.3028c0-.8911.3426-1.2885 1.1093-1.2885.458 0 .826.0907 1.2382.2279.0509.0159.1035.0079.1442-.0224.0424-.0303.0661-.0789.0661-.1303v-1.8472c0-.0706-.0441-.1331-.1136-.1539-.4342-.1292-.9906-.2618-1.8251-.2618-2.0269 0-3.1006 1.1402-3.1006 3.296v.4639h-1.055c-.0882 0-.1611.0721-.1611.1605v1.8936c0 .0884.0729.1607.1611.1607h1.055v7.5183c0 .0897.073.1608.1612.1608h2.1948c.0899 0 .1611-.0711.1611-.1608v-7.5178h2.0507l3.1413 7.5178c-.3562.789-.7073.9465-1.1857.9465-.3867 0-.7954-.1152-1.211-.3438-.039-.0203-.0865-.0237-.1272-.0118-.0424.0152-.078.0457-.095.0863l-.7446 1.6305c-.0356.0779-.0051.1676.0695.2083.7769.4199 1.4774.5993 2.3441.5993 1.6215 0 2.5188-.7551 3.3075-2.7835l3.8096-9.8263c.0203-.0495.0135-.1053-.017-.1492-.0288-.0435-.078-.0697-.1306-.0697h-2.2864c-.0696 0-.1306.0435-.1527.1076l-2.3424 6.6767-2.5645-6.6811c-.0238-.0621-.0831-.1032-.1493-.1032h-3.7519zm-4.8815-.0096h-2.1965c-.0882 0-.1611.0721-.1611.1607v9.5629c0 .0897.0729.1608.1611.1608h2.1965c.0882 0 .1611-.0711.1611-.1608v-9.5622c0-.0886-.0712-.1607-.1611-.1607zm-1.0855-4.3545c-.8702 0-1.5758.7029-1.5758 1.5713 0 .869.7056 1.5728 1.5758 1.5728.8701 0 1.574-.7038 1.574-1.5728 0-.8682-.7056-1.5713-1.574-1.5713zm19.2377 7.4294c-.8684 0-1.5452-.6967-1.5452-1.5428 0-.846.6853-1.5507 1.5537-1.5507s1.5452.6965 1.5452 1.5419c0 .8461-.6853 1.5516-1.5537 1.5516zm.0085-2.9401c-.7921 0-1.3909.6281-1.3909 1.3973 0 .7689.5954 1.3885 1.3824 1.3885.7921 0 1.3908-.6276 1.3908-1.3973 0-.7688-.5953-1.3885-1.3823-1.3885zm.3426 1.5471.4376.6109h-.3697l-.3936-.5604h-.3375v.5604h-.3087v-1.6193h.7226c.3782 0 .6259.1925.6259.5166.0016.2655-.1527.4277-.3749.4918zm-.2612-.7305h-.402v.5121h.402c.2001 0 .3206-.098.3206-.2563 0-.1666-.1205-.2558-.3206-.2558z" fill="#474f5d"/></svg>